<?xml version="1.0" standalone="no"?><!DOCTYPE svg PUBLIC "-//W3C//DTD SVG 1.1//EN" "http://www.w3.org/Graphics/SVG/1.1/DTD/svg11.dtd"><svg t="1693292212840" class="icon" viewBox="0 0 1024 1024" version="1.1" xmlns="http://www.w3.org/2000/svg" p-id="8562" xmlns:xlink="http://www.w3.org/1999/xlink" width="128" height="128"><path d="M902.31048782 913.17400057h-775.96518428c-1.42260306 0-2.5865509-1.16394784-2.5865509-2.58655092V470.35653558c0-1.42260306 1.16394784-2.5865509 2.5865509-2.58655091h775.96518428c1.42260306 0 2.5865509 1.16394784 2.58655089 2.58655091v440.23091407c0 1.42260306-1.16394784 2.5865509-2.58655089 2.58655092z" fill="#B0BEC5" p-id="8563"></path><path d="M895.585456 919.89903238H133.19966231c-8.92359924 0-16.16594149-7.24234225-16.16594149-16.16594151V477.0815661c0-8.92359924 7.24234225-16.16594149 16.16594149-16.16594021h762.38579369c8.92359924 0 16.16594149 7.24234225 16.1659415 16.16594021v426.65152477c0 8.92359924-7.37166922 16.16594149-16.1659415 16.16594151zM133.19966231 474.49501649c-1.42260306 0-2.5865509 1.16394784-2.58655088 2.58654961v426.65152477c0 1.42260306 1.16394784 2.5865509 2.58655088 2.5865509h762.38579369c1.42260306 0 2.5865509-1.16394784 2.58655089-2.5865509V477.0815661c0-1.42260306-1.16394784-2.5865509-2.58655089-2.58654961H133.19966231z" fill="#B0BEC5" p-id="8564"></path><path d="M130.61311143 365.98921734h767.55889546v419.79716471H130.61311143z" fill="#CFD8DC" p-id="8565"></path><path d="M881.74741019 425.47988156H146.90838118c-1.42260306 0-2.5865509-1.16394784-2.5865509-2.58654961V105.39424372c0-1.42260306 1.16394784-2.5865509 2.5865509-2.5865509h734.83902901c1.42260306 0 2.5865509 1.16394784 2.58655088 2.5865509v317.49908823c0 1.42260306-1.16394784 2.5865509-2.58655088 2.58654961z" fill="#F7794D" p-id="8566"></path><path d="M119.49094476 506.43891602c34.9184339 0 65.69838559-31.42659038 65.69838558-61.94788685l-129.32753071-2.84520612c0 31.0386069 28.84003948 64.79309297 63.62914513 64.79309297zM390.43212068 506.43891602c34.9184339 0 63.11183468-23.53761072 63.11183599-58.45604333h-127.51694547c0 34.9184339 29.48667689 58.45604333 64.40510948 58.45604333zM640.0342559 506.43891602c34.9184339 0 62.7238525-23.53761072 62.72385253-58.45604333h-127.12896331c0 34.9184339 29.48667689 58.45604333 64.40511078 58.45604333zM901.92250563 506.43891602c34.9184339 0 63.11183468-23.53761072 63.11183469-58.45604333l-122.73182715-3.36251655c0.12932695 34.78910564 24.83088553 61.81855988 59.61999246 61.81855988z" fill="#F9A928" p-id="8567"></path><path d="M255.41417903 506.43891602c34.9184339 0 70.48350391-23.53761072 70.48350391-58.45604333h-140.9670078c0 34.9184339 35.69439827 58.45604333 70.48350389 58.45604333zM516.26780788 506.43891602c34.9184339 0 59.36133724-23.53761072 59.36133724-58.45604333H453.15597319c0 34.9184339 28.19340208 58.45604333 63.11183469 58.45604333zM773.24161232 506.43891602c34.9184339 0 70.48350391-23.53761072 70.48350391-58.45604333H702.75810843c0 34.9184339 35.56507131 58.45604333 70.48350389 58.45604333z" fill="#E55110" p-id="8568"></path><path d="M453.15597319 192.94898175h122.47317193v257.36178662H453.15597319z" fill="#F96216" p-id="8569"></path><path d="M453.15597319 450.31076837h-127.25829025l4.78511833-257.36178662h127.12896328z" fill="#FCBF27" p-id="8570"></path><path d="M325.89768294 450.31076837H184.67201991l28.19340207-257.36178662h122.47317065z" fill="#F96216" p-id="8571"></path><path d="M176.13640284 450.31076837H65.17338107c-6.20772138 0-10.73418448-5.94906617-9.0529275-11.89813361l69.96619475-238.60929423c1.16394784-4.13848093 4.78511833-6.85435877 9.0529275-6.85435878h67.50897084c5.56108398 0 9.82889186 4.78511833 9.3115814 10.21687534L185.44798428 441.77515131c-0.38798219 4.78511833-4.39713614 8.53561706-9.31158144 8.53561706zM702.75810843 450.31076837h-127.12896331l-4.78511831-257.36178662h127.25829025z" fill="#FCBF27" p-id="8572"></path><path d="M843.98377146 450.31076837H702.75810843l-9.4409097-257.36178662h117.81737929z" fill="#F96216" p-id="8573"></path><path d="M958.82661893 450.31076837h-106.43655738c-4.78511833 0-8.79427228-3.62117049-9.31158271-8.4062901l-30.77995299-238.60929422c-0.6466374-5.56108398 3.75049874-10.3462023 9.31158273-10.3462023h72.03543522c4.26780788 0 7.88897966 2.84520612 9.05292621 6.85435878L967.87954643 438.41263476c1.68125828 5.94906617-2.84520612 11.89813232-9.0529275 11.89813361z" fill="#FCBF27" p-id="8574"></path><path d="M725.77840869 906.31964177H301.84276308V591.27777619c0-1.42260306 1.16394784-2.5865509 2.5865496-2.5865509h418.76254512c1.42260306 0 2.5865509 1.16394784 2.58655089 2.5865509v315.04186558z" fill="#FFFFFF" p-id="8575"></path><path d="M710.2591046 906.31964177H317.23273892V605.37447724c0-1.42260306 1.16394784-2.5865509 2.58655089-2.58655091h387.72393693c1.42260306 0 2.5865509 1.16394784 2.58655089 2.58655091v300.94516453z" fill="#64B5F6" p-id="8576"></path><path d="M663.18388316 602.78792633H326.67364861c-5.17310179 0-9.44090969 4.13848093-9.44090969 9.44090968v174.59216691l338.70880328-169.67772034h54.3175624V612.22883601c0-5.17310179-4.13848093-9.44090969-9.44090968-9.44090968h-37.63431176z" fill="#2196F3" p-id="8577"></path><path d="M499.71388419 602.78792633h28.19340209v303.53171544H499.71388419z" fill="#1E88E5" p-id="8578"></path><path d="M499.71388419 602.78792633v86.39079018l28.06407513-15.38997584v-71.00081434z" fill="#218AD8" p-id="8579"></path><path d="M419.53081538 751.12660466h30.90927996v27.02945425H419.53081538zM576.66376601 751.12660466h30.90927863v27.02945425h-30.90927863z" fill="#1E88E5" p-id="8580"></path></svg>