<?xml version="1.0" standalone="no"?><!DOCTYPE svg PUBLIC "-//W3C//DTD SVG 1.1//EN" "http://www.w3.org/Graphics/SVG/1.1/DTD/svg11.dtd"><svg t="1698047657848" class="icon" viewBox="0 0 2780 1024" version="1.1" xmlns="http://www.w3.org/2000/svg" p-id="4120" xmlns:xlink="http://www.w3.org/1999/xlink" width="86.875" height="32"><path d="M2710.093151 205.50137h-316.317809c-16.131507 0-29.457534-13.326027-29.457534-29.457534s13.326027-29.457534 29.457534-29.457535h316.317809c16.131507 0 29.457534 13.326027 29.457534 29.457535s-13.326027 29.457534-29.457534 29.457534zM1751.320548 366.816438c-16.131507 0-29.457534-13.326027-29.457534-29.457534V124.843836c0-16.131507 13.326027-29.457534 29.457534-29.457535 16.131507 0 29.457534 13.326027 29.457534 29.457535v212.515068c0 16.131507-13.326027 29.457534-29.457534 29.457534z" fill="#231815" p-id="4121"></path><path d="M1751.320548 640.350685c-16.131507 0-29.457534-13.326027-29.457534-29.457534v-273.534247c0-16.131507 13.326027-29.457534 29.457534-29.457534 16.131507 0 29.457534 13.326027 29.457534 29.457534v273.534247c0 16.131507-13.326027 29.457534-29.457534 29.457534z" fill="#231815" p-id="4122"></path><path d="M2020.646575 381.545205h-474.126027c-16.131507 0-29.457534-13.326027-29.457534-29.457534s13.326027-29.457534 29.457534-29.457534h474.126027c16.131507 0 29.457534 13.326027 29.457535 29.457534s-13.326027 29.457534-29.457535 29.457534zM1955.419178 236.361644h-204.09863c-16.131507 0-29.457534-13.326027-29.457534-29.457534s13.326027-29.457534 29.457534-29.457535h204.09863c16.131507 0 29.457534 13.326027 29.457534 29.457535s-13.326027 29.457534-29.457534 29.457534zM1956.120548 594.761644c-8.416438 0-16.832877-3.506849-22.443836-10.520548l-90.476712-110.115069c-10.520548-12.624658-8.416438-30.860274 4.208219-40.679452 12.624658-10.520548 30.860274-8.416438 40.679452 4.20822L1978.564384 547.068493c10.520548 12.624658 8.416438 30.860274-4.20822 40.679452-5.610959 4.909589-11.923288 7.013699-18.235616 7.013699zM2183.364384 541.457534c-8.416438 0-16.131507-3.506849-21.742466-9.819178-10.520548-11.923288-9.117808-30.860274 2.805479-41.380822l70.838356-61.019178c11.923288-10.520548 30.860274-9.117808 41.380822 2.80548 10.520548 11.923288 9.117808 30.860274-2.805479 41.380822L2202.30137 534.443836c-4.909589 4.909589-11.923288 7.013699-18.936986 7.013698zM2183.364384 302.991781c-8.416438 0-16.131507-3.506849-21.742466-9.819178-10.520548-11.923288-9.117808-30.860274 2.805479-41.380822L2292.076712 140.273973c11.923288-10.520548 30.860274-9.117808 41.380822 2.805479 10.520548 11.923288 9.117808 30.860274-2.805479 41.380822L2202.30137 295.978082c-4.909589 4.909589-11.923288 7.013699-18.936986 7.013699zM2721.315068 640.350685h-334.553424c-16.131507 0-29.457534-13.326027-29.457534-29.457534V276.339726c0-16.131507 13.326027-29.457534 29.457534-29.457534H2721.315068c16.131507 0 29.457534 13.326027 29.457535 29.457534v334.553425c-0.70137 16.131507-13.326027 29.457534-29.457535 29.457534zM2415.517808 582.136986h276.339726V305.09589h-276.339726V582.136986z" fill="#231815" p-id="4123"></path><path d="M2721.315068 472.723288h-328.241095c-16.131507 0-29.457534-13.326027-29.457535-29.457535s13.326027-29.457534 29.457535-29.457534H2721.315068c16.131507 0 29.457534 13.326027 29.457535 29.457534s-13.326027 29.457534-29.457535 29.457535z" fill="#231815" p-id="4124"></path><path d="M2553.687671 640.350685c-16.131507 0-29.457534-13.326027-29.457534-29.457534V276.339726c0-16.131507 13.326027-29.457534 29.457534-29.457534s29.457534 13.326027 29.457534 29.457534v334.553425c0 16.131507-13.326027 29.457534-29.457534 29.457534zM2255.605479 640.350685c-16.131507 0-29.457534-13.326027-29.457534-29.457534V218.827397l-46.290411-76.449315c-8.416438-14.027397-4.208219-31.561644 9.819178-39.978082 14.027397-8.416438 31.561644-4.208219 39.978083 9.819178l50.49863 83.463014c2.805479 4.909589 4.208219 9.819178 4.208219 15.430137v400.482192c0.70137 15.430137-12.624658 28.756164-28.756165 28.756164zM2461.808219 197.084932c-16.131507 0-29.457534-13.326027-29.457534-29.457535v-43.484931c0-16.131507 13.326027-29.457534 29.457534-29.457534 16.131507 0 29.457534 13.326027 29.457534 29.457534V168.328767c0 16.131507-13.326027 28.756164-29.457534 28.756165zM2646.969863 197.084932c-16.131507 0-29.457534-13.326027-29.457534-29.457535v-43.484931c0-16.131507 13.326027-29.457534 29.457534-29.457534s29.457534 13.326027 29.457534 29.457534V168.328767c0 16.131507-13.326027 28.756164-29.457534 28.756165z" fill="#231815" p-id="4125"></path><path d="M1130.608219 1007.868493h-953.863014c-44.186301 0-79.956164-35.769863-79.956164-79.956164V355.594521c0-96.789041 78.553425-175.342466 175.342466-175.342466h762.389041c96.789041 0 175.342466 78.553425 175.342466 175.342466v572.317808c0.70137 44.186301-35.068493 79.956164-79.254795 79.956164zM272.131507 224.438356c-72.241096 0-131.156164 58.915068-131.156165 131.156165v572.317808c0 19.638356 16.131507 35.769863 35.769863 35.769863h953.863014c19.638356 0 35.769863-16.131507 35.769863-35.769863V355.594521c0-72.241096-58.915068-131.156164-131.156164-131.156165H272.131507z" fill="#231815" p-id="4126"></path><path d="M450.279452 648.767123H21.041096c-11.221918 0-20.339726-9.117808-20.339726-20.339726C0 617.205479 9.117808 608.087671 21.041096 608.087671h429.238356c11.221918 0 20.339726 9.117808 20.339726 20.339726 0 11.221918-9.117808 20.339726-20.339726 20.339726zM1285.610959 648.767123h-432.043836c-11.221918 0-20.339726-9.117808-20.339726-20.339726 0-11.221918 9.117808-20.339726 20.339726-20.339726h432.043836c11.221918 0 20.339726 9.117808 20.339726 20.339726 0.70137 11.221918-9.117808 20.339726-20.339726 20.339726zM450.279452 749.063014H215.320548c-11.221918 0-20.339726-9.117808-20.339726-20.339726 0-11.221918 9.117808-20.339726 20.339726-20.339726h234.958904c11.221918 0 20.339726 9.117808 20.339726 20.339726 0 11.221918-9.117808 20.339726-20.339726 20.339726zM1089.928767 749.063014h-236.361644c-11.221918 0-20.339726-9.117808-20.339726-20.339726 0-11.221918 9.117808-20.339726 20.339726-20.339726h236.361644c11.221918 0 20.339726 9.117808 20.339726 20.339726 0.70137 11.221918-9.117808 20.339726-20.339726 20.339726zM595.463014 667.00274c-23.145205 0-45.589041-12.624658-56.810959-32.964384-2.10411-4.208219-0.70137-9.117808 2.805479-11.923288 4.208219-2.10411 9.117808-0.70137 11.923288 2.80548 8.416438 14.728767 24.547945 24.547945 42.082192 24.547945 26.652055 0 49.09589-21.742466 49.09589-49.09589 0-4.909589 3.506849-8.416438 8.416438-8.416439s8.416438 3.506849 8.416439 8.416439c0 37.172603-30.158904 66.630137-65.928767 66.630137z" fill="#231815" p-id="4127"></path><path d="M709.786301 667.00274c-36.471233 0-65.928767-29.457534-65.928767-65.928767 0-4.909589 3.506849-8.416438 8.416439-8.416439s8.416438 3.506849 8.416438 8.416439c0 26.652055 21.742466 49.09589 49.09589 49.09589 17.534247 0 33.665753-9.117808 42.082192-24.547945 2.10411-4.208219 7.715068-5.610959 11.923288-2.80548 4.208219 2.10411 5.610959 7.715068 2.805479 11.923288-11.221918 19.638356-33.665753 32.263014-56.810959 32.263014z" fill="#231815" p-id="4128"></path><path d="M464.306849 502.882192m-56.810959 0a56.810959 56.810959 0 1 0 113.621918 0 56.810959 56.810959 0 1 0-113.621918 0Z" fill="#040000" p-id="4129"></path><path d="M843.046575 502.882192m-56.810959 0a56.810959 56.810959 0 1 0 113.621918 0 56.810959 56.810959 0 1 0-113.621918 0Z" fill="#040000" p-id="4130"></path><path d="M653.676712 333.150685c-13.326027 0-23.846575-10.520548-23.846575-23.846575v-48.394521c0-13.326027 10.520548-23.846575 23.846575-23.846575s23.846575 10.520548 23.846576 23.846575v48.394521c0 13.326027-10.520548 23.846575-23.846576 23.846575zM562.49863 333.150685c-13.326027 0-23.846575-10.520548-23.846575-23.846575v-48.394521c0-13.326027 10.520548-23.846575 23.846575-23.846575s23.846575 10.520548 23.846575 23.846575v48.394521c0 13.326027-10.520548 23.846575-23.846575 23.846575zM744.854795 333.150685c-13.326027 0-23.846575-10.520548-23.846576-23.846575v-48.394521c0-13.326027 10.520548-23.846575 23.846576-23.846575s23.846575 10.520548 23.846575 23.846575v48.394521c0 13.326027-10.520548 23.846575-23.846575 23.846575z" fill="#231815" p-id="4131"></path><path d="M256.70137 201.994521S283.353425 32.964384 373.830137 32.964384 490.958904 201.994521 490.958904 201.994521H256.70137z" fill="#F5C900" p-id="4132"></path><path d="M490.958904 222.334247H256.70137c-6.312329 0-11.923288-2.805479-15.430137-7.013699-4.208219-4.208219-5.610959-10.520548-4.909589-16.832877 1.40274-7.715068 30.860274-186.564384 137.468493-186.564383 106.608219 0 136.065753 178.849315 137.468493 186.564383 0.70137 5.610959-0.70137 11.923288-4.909589 16.832877-3.506849 4.208219-9.117808 7.013699-15.430137 7.013699z m-209.008219-40.679452h183.758904c-11.923288-49.79726-41.380822-128.350685-91.879452-128.350685-53.30411 0-81.358904 85.567123-91.879452 128.350685z" fill="#231815" p-id="4133"></path><path d="M814.290411 201.994521s26.652055-169.030137 117.128767-169.030137 117.128767 169.030137 117.128767 169.030137h-234.257534z" fill="#F5C900" p-id="4134"></path><path d="M1047.846575 222.334247H813.589041c-6.312329 0-11.923288-2.805479-15.430137-7.013699-4.208219-4.208219-5.610959-10.520548-4.909589-16.832877 1.40274-7.715068 30.860274-186.564384 137.468493-186.564383 106.608219 0 136.065753 178.849315 137.468493 186.564383 0.70137 5.610959-0.70137 11.923288-4.909589 16.832877-3.506849 4.208219-9.117808 7.013699-15.430137 7.013699z m-208.306849-40.679452h183.758904c-11.923288-49.79726-41.380822-128.350685-91.879452-128.350685-54.005479 0-81.358904 85.567123-91.879452 128.350685z" fill="#231815" p-id="4135"></path><path d="M2218.432877 988.931507c-60.317808 0-108.712329-49.09589-108.712329-108.712329s49.09589-108.712329 108.712329-108.712329c29.457534 0 56.810959 11.221918 77.150685 32.263014 7.715068 7.715068 7.715068 19.638356 0 27.353425s-19.638356 7.715068-27.353425 0c-13.326027-13.326027-30.860274-21.041096-50.49863-21.041096-39.276712 0-70.838356 31.561644-70.838356 70.838356s31.561644 70.838356 70.838356 70.838356c18.936986 0 36.471233-7.715068 50.49863-21.041096 7.715068-7.715068 19.638356-7.715068 27.353425 0s7.715068 19.638356 0 27.353425c-20.339726 19.638356-47.693151 30.860274-77.150685 30.860274zM2529.139726 989.632877c-7.013699 0-13.326027-3.506849-16.832877-10.520548l-74.345205-141.676713-74.345206 141.676713c-4.909589 9.117808-16.131507 12.624658-25.950685 8.416438-9.117808-4.909589-13.326027-16.832877-8.416438-25.950685l91.178082-173.939726c3.506849-6.312329 9.819178-10.520548 16.832877-10.520548s13.326027 4.208219 16.832877 10.520548l91.178082 173.939726c4.909589 9.117808 1.40274 21.041096-8.416438 25.950685-2.10411 1.40274-4.909589 2.10411-7.715069 2.10411zM1866.345205 989.632877c-2.805479 0-6.312329-0.70137-9.117808-2.10411-9.117808-4.909589-13.326027-16.832877-8.416438-25.950685l91.178082-173.939726c3.506849-6.312329 9.819178-10.520548 16.832877-10.520548s13.326027 4.208219 16.832877 10.520548l91.178082 173.939726c4.909589 9.117808 1.40274 21.041096-8.416439 25.950685-9.117808 4.909589-21.041096 1.40274-25.950685-8.416438l-74.345205-141.676713-74.345206 141.676713c-2.10411 6.312329-8.416438 10.520548-15.430137 10.520548z" fill="#231815" p-id="4136"></path><path d="M2761.293151 812.887671H2609.09589c-10.520548 0-18.936986-8.416438-18.936986-18.936986 0-10.520548 8.416438-18.936986 18.936986-18.936986h152.197261c10.520548 0 18.936986 8.416438 18.936986 18.936986 0.70137 9.819178-8.416438 18.936986-18.936986 18.936986z" fill="#231815" p-id="4137"></path><path d="M2685.545205 992.438356c-10.520548 0-18.936986-8.416438-18.936986-18.936986v-169.731507c0-10.520548 8.416438-18.936986 18.936986-18.936986 10.520548 0 18.936986 8.416438 18.936987 18.936986v169.731507c0 10.520548-8.416438 18.936986-18.936987 18.936986z" fill="#231815" p-id="4138"></path><path d="M1772.361644 991.035616c-7.013699 0-13.326027-3.506849-16.832877-10.520548l-69.435616-95.386301c-4.909589-9.117808-1.40274-21.041096 7.715068-25.950685 9.117808-4.909589 21.041096-1.40274 25.950685 7.715069l69.435617 95.386301c4.909589 9.117808 1.40274 21.041096-7.715069 25.950685-2.805479 2.10411-6.312329 2.805479-9.117808 2.805479z" fill="#231815" p-id="4139"></path><path d="M1632.789041 934.224658c-7.715068-7.715068-7.013699-20.339726 2.10411-28.756165l122.739726-122.739726c8.416438-8.416438 21.041096-9.117808 28.756164-2.104109s7.013699 20.339726-2.104109 28.756164L1662.246575 932.120548c-8.416438 8.416438-21.742466 9.117808-29.457534 2.10411z" fill="#231815" p-id="4140"></path><path d="M1646.816438 991.035616c-10.520548 0-18.936986-8.416438-18.936986-18.936986v-177.446575c0-10.520548 8.416438-18.936986 18.936986-18.936987 10.520548 0 18.936986 8.416438 18.936987 18.936987v177.446575c0 10.520548-8.416438 18.936986-18.936987 18.936986z" fill="#231815" p-id="4141"></path></svg>